<mxfile host="65bd71144e">
    <diagram id="hGv6xo4nuzRhdtU87L9W" name="ページ1">
        <mxGraphModel dx="2149" dy="5260" grid="1" gridSize="10" guides="1" tooltips="1" connect="1" arrows="1" fold="1" page="1" pageScale="1" pageWidth="827" pageHeight="1169" math="0" shadow="0">
            <root>
                <mxCell id="0"/>
                <mxCell id="1" parent="0"/>
                <mxCell id="38" value="" style="whiteSpace=wrap;html=1;aspect=fixed;sketch=0;fontSize=12;" parent="1" vertex="1">
                    <mxGeometry x="2.5" y="-110" width="830" height="830" as="geometry"/>
                </mxCell>
                <mxCell id="31" value="" style="fontColor=#0066CC;verticalAlign=top;verticalLabelPosition=bottom;labelPosition=center;align=center;html=1;outlineConnect=0;fillColor=#CCCCCC;strokeColor=#6881B3;gradientColor=none;gradientDirection=north;strokeWidth=2;shape=mxgraph.networks.pc;sketch=0;" parent="1" vertex="1">
                    <mxGeometry x="364" y="590" width="100" height="70" as="geometry"/>
                </mxCell>
                <mxCell id="32" value="" style="whiteSpace=wrap;html=1;aspect=fixed;sketch=0;" parent="1" vertex="1">
                    <mxGeometry x="110" y="-50" width="615" height="615" as="geometry"/>
                </mxCell>
                <mxCell id="34" value="&lt;font style=&quot;font-size: 23px;&quot;&gt;docker-compose&lt;/font&gt;" style="text;html=1;strokeColor=none;fillColor=none;align=center;verticalAlign=middle;whiteSpace=wrap;rounded=0;sketch=0;" parent="1" vertex="1">
                    <mxGeometry x="545" y="530" width="180" height="30" as="geometry"/>
                </mxCell>
                <mxCell id="39" value="" style="edgeStyle=none;html=1;fontFamily=Helvetica;fontSize=12;fontColor=default;" edge="1" parent="1" source="20" target="23">
                    <mxGeometry relative="1" as="geometry"/>
                </mxCell>
                <mxCell id="16" value="" style="fontColor=#0066CC;verticalAlign=top;verticalLabelPosition=bottom;labelPosition=center;align=center;html=1;outlineConnect=0;fillColor=#CCCCCC;strokeColor=#6881B3;gradientColor=none;gradientDirection=north;strokeWidth=2;shape=mxgraph.networks.server;sketch=0;" parent="1" vertex="1">
                    <mxGeometry x="216" y="10" width="90" height="100" as="geometry"/>
                </mxCell>
                <mxCell id="17" value="攻撃者のLDAPサーバー" style="text;html=1;strokeColor=none;fillColor=none;align=center;verticalAlign=middle;whiteSpace=wrap;rounded=0;sketch=0;" parent="1" vertex="1">
                    <mxGeometry x="136" y="120" width="250" height="30" as="geometry"/>
                </mxCell>
                <mxCell id="28" value="" style="fontColor=#0066CC;verticalAlign=top;verticalLabelPosition=bottom;labelPosition=center;align=center;html=1;outlineConnect=0;fillColor=#CCCCCC;strokeColor=#6881B3;gradientColor=none;gradientDirection=north;strokeWidth=2;shape=mxgraph.networks.server;sketch=0;" parent="1" vertex="1">
                    <mxGeometry x="536" y="180" width="90" height="100" as="geometry"/>
                </mxCell>
                <mxCell id="29" value="log4jの脆弱性を持つWebサーバー" style="text;html=1;strokeColor=none;fillColor=none;align=center;verticalAlign=middle;whiteSpace=wrap;rounded=0;sketch=0;" parent="1" vertex="1">
                    <mxGeometry x="456" y="290" width="250" height="30" as="geometry"/>
                </mxCell>
                <mxCell id="20" value="" style="fontColor=#0066CC;verticalAlign=top;verticalLabelPosition=bottom;labelPosition=center;align=center;html=1;outlineConnect=0;fillColor=#CCCCCC;strokeColor=#6881B3;gradientColor=none;gradientDirection=north;strokeWidth=2;shape=mxgraph.networks.server;sketch=0;" parent="1" vertex="1">
                    <mxGeometry x="216" y="200" width="90" height="100" as="geometry"/>
                </mxCell>
                <mxCell id="21" value="悪意のあるのプログラムを配信するHTTPサーバー" style="text;html=1;strokeColor=none;fillColor=none;align=center;verticalAlign=middle;whiteSpace=wrap;rounded=0;sketch=0;" parent="1" vertex="1">
                    <mxGeometry x="121" y="310" width="280" height="30" as="geometry"/>
                </mxCell>
                <mxCell id="23" value="" style="fontColor=#0066CC;verticalAlign=top;verticalLabelPosition=bottom;labelPosition=center;align=center;html=1;outlineConnect=0;fillColor=#CCCCCC;strokeColor=#6881B3;gradientColor=none;gradientDirection=north;strokeWidth=2;shape=mxgraph.networks.server;sketch=0;" parent="1" vertex="1">
                    <mxGeometry x="216" y="380" width="90" height="100" as="geometry"/>
                </mxCell>
                <mxCell id="24" value="リバースシェルを待ち受ける攻撃者のサーバー" style="text;html=1;strokeColor=none;fillColor=none;align=center;verticalAlign=middle;whiteSpace=wrap;rounded=0;sketch=0;" parent="1" vertex="1">
                    <mxGeometry x="126" y="490" width="270" height="30" as="geometry"/>
                </mxCell>
                <mxCell id="42" value="" style="whiteSpace=wrap;html=1;aspect=fixed;sketch=0;" vertex="1" parent="1">
                    <mxGeometry x="110" y="-50" width="615" height="615" as="geometry"/>
                </mxCell>
                <mxCell id="43" value="&lt;font style=&quot;font-size: 23px;&quot;&gt;docker-compose&lt;/font&gt;" style="text;html=1;strokeColor=none;fillColor=none;align=center;verticalAlign=middle;whiteSpace=wrap;rounded=0;sketch=0;" vertex="1" parent="1">
                    <mxGeometry x="545" y="530" width="180" height="30" as="geometry"/>
                </mxCell>
                <mxCell id="44" value="" style="edgeStyle=none;html=1;fontFamily=Helvetica;fontSize=12;fontColor=default;" edge="1" parent="1" source="49" target="51">
                    <mxGeometry relative="1" as="geometry"/>
                </mxCell>
                <mxCell id="45" value="" style="fontColor=#0066CC;verticalAlign=top;verticalLabelPosition=bottom;labelPosition=center;align=center;html=1;outlineConnect=0;fillColor=#CCCCCC;strokeColor=#6881B3;gradientColor=none;gradientDirection=north;strokeWidth=2;shape=mxgraph.networks.server;sketch=0;" vertex="1" parent="1">
                    <mxGeometry x="216" y="10" width="90" height="100" as="geometry"/>
                </mxCell>
                <mxCell id="46" value="攻撃者のLDAPサーバー" style="text;html=1;strokeColor=none;fillColor=none;align=center;verticalAlign=middle;whiteSpace=wrap;rounded=0;sketch=0;" vertex="1" parent="1">
                    <mxGeometry x="136" y="120" width="250" height="30" as="geometry"/>
                </mxCell>
                <mxCell id="47" value="" style="fontColor=#0066CC;verticalAlign=top;verticalLabelPosition=bottom;labelPosition=center;align=center;html=1;outlineConnect=0;fillColor=#CCCCCC;strokeColor=#6881B3;gradientColor=none;gradientDirection=north;strokeWidth=2;shape=mxgraph.networks.server;sketch=0;" vertex="1" parent="1">
                    <mxGeometry x="536" y="180" width="90" height="100" as="geometry"/>
                </mxCell>
                <mxCell id="48" value="log4jの脆弱性を持つWebサーバー" style="text;html=1;strokeColor=none;fillColor=none;align=center;verticalAlign=middle;whiteSpace=wrap;rounded=0;sketch=0;" vertex="1" parent="1">
                    <mxGeometry x="456" y="290" width="250" height="30" as="geometry"/>
                </mxCell>
                <mxCell id="49" value="" style="fontColor=#0066CC;verticalAlign=top;verticalLabelPosition=bottom;labelPosition=center;align=center;html=1;outlineConnect=0;fillColor=#CCCCCC;strokeColor=#6881B3;gradientColor=none;gradientDirection=north;strokeWidth=2;shape=mxgraph.networks.server;sketch=0;" vertex="1" parent="1">
                    <mxGeometry x="216" y="200" width="90" height="100" as="geometry"/>
                </mxCell>
                <mxCell id="50" value="悪意のあるのプログラムを配信するHTTPサーバー" style="text;html=1;strokeColor=none;fillColor=none;align=center;verticalAlign=middle;whiteSpace=wrap;rounded=0;sketch=0;" vertex="1" parent="1">
                    <mxGeometry x="121" y="310" width="280" height="30" as="geometry"/>
                </mxCell>
                <mxCell id="51" value="" style="fontColor=#0066CC;verticalAlign=top;verticalLabelPosition=bottom;labelPosition=center;align=center;html=1;outlineConnect=0;fillColor=#CCCCCC;strokeColor=#6881B3;gradientColor=none;gradientDirection=north;strokeWidth=2;shape=mxgraph.networks.server;sketch=0;" vertex="1" parent="1">
                    <mxGeometry x="216" y="380" width="90" height="100" as="geometry"/>
                </mxCell>
                <mxCell id="52" value="リバースシェルを待ち受ける攻撃者のサーバー" style="text;html=1;strokeColor=none;fillColor=none;align=center;verticalAlign=middle;whiteSpace=wrap;rounded=0;sketch=0;" vertex="1" parent="1">
                    <mxGeometry x="126" y="490" width="270" height="30" as="geometry"/>
                </mxCell>
                <mxCell id="53" value="&lt;font style=&quot;font-size: 29px;&quot;&gt;実験に用いるホストマシン&lt;/font&gt;" style="text;html=1;strokeColor=none;fillColor=none;align=center;verticalAlign=middle;whiteSpace=wrap;rounded=0;sketch=0;fontSize=29;" vertex="1" parent="1">
                    <mxGeometry x="233.75" y="680" width="367.5" height="30" as="geometry"/>
                </mxCell>
                <mxCell id="55" value="" style="whiteSpace=wrap;html=1;sketch=0;" vertex="1" parent="1">
                    <mxGeometry x="57.5" y="-80" width="720" height="654" as="geometry"/>
                </mxCell>
                <mxCell id="56" value="&lt;font style=&quot;font-size: 31px;&quot;&gt;docker-compose&lt;/font&gt;" style="text;html=1;strokeColor=none;fillColor=none;align=center;verticalAlign=middle;whiteSpace=wrap;rounded=0;sketch=0;" vertex="1" parent="1">
                    <mxGeometry x="502.5" y="544" width="275" height="30" as="geometry"/>
                </mxCell>
                <mxCell id="58" value="" style="fontColor=#0066CC;verticalAlign=top;verticalLabelPosition=bottom;labelPosition=center;align=center;html=1;outlineConnect=0;fillColor=#CCCCCC;strokeColor=#6881B3;gradientColor=none;gradientDirection=north;strokeWidth=2;shape=mxgraph.networks.server;sketch=0;" vertex="1" parent="1">
                    <mxGeometry x="216" y="-50" width="90" height="100" as="geometry"/>
                </mxCell>
                <mxCell id="59" value="攻撃者のLDAPサーバー" style="text;html=1;strokeColor=none;fillColor=none;align=center;verticalAlign=middle;whiteSpace=wrap;rounded=0;sketch=0;fontSize=29;" vertex="1" parent="1">
                    <mxGeometry x="104" y="60" width="314" height="30" as="geometry"/>
                </mxCell>
                <mxCell id="60" value="" style="fontColor=#0066CC;verticalAlign=top;verticalLabelPosition=bottom;labelPosition=center;align=center;html=1;outlineConnect=0;fillColor=#CCCCCC;strokeColor=#6881B3;gradientColor=none;gradientDirection=north;strokeWidth=2;shape=mxgraph.networks.server;sketch=0;" vertex="1" parent="1">
                    <mxGeometry x="553" y="160" width="90" height="100" as="geometry"/>
                </mxCell>
                <mxCell id="61" value="log4jの脆弱性を持つWebサーバー" style="text;html=1;strokeColor=none;fillColor=none;align=center;verticalAlign=middle;whiteSpace=wrap;rounded=0;sketch=0;fontSize=29;" vertex="1" parent="1">
                    <mxGeometry x="456" y="290" width="284" height="30" as="geometry"/>
                </mxCell>
                <mxCell id="62" value="" style="fontColor=#0066CC;verticalAlign=top;verticalLabelPosition=bottom;labelPosition=center;align=center;html=1;outlineConnect=0;fillColor=#CCCCCC;strokeColor=#6881B3;gradientColor=none;gradientDirection=north;strokeWidth=2;shape=mxgraph.networks.server;sketch=0;" vertex="1" parent="1">
                    <mxGeometry x="216" y="120" width="90" height="100" as="geometry"/>
                </mxCell>
                <mxCell id="63" value="悪意のあるのプログラムを配信するHTTPサーバー" style="text;html=1;strokeColor=none;fillColor=none;align=center;verticalAlign=middle;whiteSpace=wrap;rounded=0;sketch=0;fontSize=29;" vertex="1" parent="1">
                    <mxGeometry x="91.5" y="250" width="339" height="30" as="geometry"/>
                </mxCell>
                <mxCell id="64" value="" style="fontColor=#0066CC;verticalAlign=top;verticalLabelPosition=bottom;labelPosition=center;align=center;html=1;outlineConnect=0;fillColor=#CCCCCC;strokeColor=#6881B3;gradientColor=none;gradientDirection=north;strokeWidth=2;shape=mxgraph.networks.server;sketch=0;" vertex="1" parent="1">
                    <mxGeometry x="216" y="320" width="90" height="100" as="geometry"/>
                </mxCell>
                <mxCell id="65" value="リバースシェルを待ち受ける攻撃者のマシン" style="text;html=1;strokeColor=none;fillColor=none;align=center;verticalAlign=middle;whiteSpace=wrap;rounded=0;sketch=0;fontSize=29;" vertex="1" parent="1">
                    <mxGeometry x="71.5" y="460" width="379" height="30" as="geometry"/>
                </mxCell>
            </root>
        </mxGraphModel>
    </diagram>
</mxfile>